<svg width="37" height="37" viewBox="0 0 37 37" fill="none" xmlns="http://www.w3.org/2000/svg">
<path d="M33.1509 34.743C31.7403 33.8389 30.6594 32.4368 30.0894 30.7717L30.0738 30.7177C30.0208 30.5605 30.0185 30.3885 30.0674 30.2298C30.1162 30.071 30.2132 29.9349 30.3427 29.8436L30.3455 29.842C34.0244 26.9545 36.3945 22.3202 36.413 17.0847V17.0817C36.413 7.65746 28.2628 0 18.2092 0C8.15554 0.0986667 0.00537109 7.75304 0.00537109 17.077C0.00537109 26.4966 8.15554 34.1525 18.2092 34.1525L18.4197 34.1541C19.6915 34.1541 20.9335 34.0092 22.1313 33.7363L22.0147 33.7579C22.1402 33.713 22.2749 33.7077 22.4032 33.7426C22.5314 33.7776 22.6478 33.8513 22.7388 33.9552C25.5721 35.8334 28.807 36.882 32.1266 36.9985L32.1593 37C32.3394 37.0241 32.5221 37.0067 32.6956 36.949C32.869 36.8912 33.0292 36.7944 33.1656 36.6648C33.3021 36.5353 33.4118 36.3759 33.4875 36.1972C33.5631 36.0185 33.6031 35.8245 33.6047 35.6279C33.7868 35.3304 33.4212 35.0344 33.1495 34.743H33.1509ZM28.2585 33.1736C28.311 33.2226 28.3441 33.2916 28.351 33.3663V33.3678C28.3483 33.4192 28.3282 33.4677 28.2946 33.5041C28.2611 33.5405 28.2163 33.5622 28.1689 33.5652C26.2381 32.981 24.4394 31.9712 22.8853 30.599L22.9109 30.6221C22.7887 30.5031 22.639 30.4219 22.4778 30.3872C22.3166 30.3525 22.1497 30.3654 21.9948 30.4248L22.0019 30.4232C20.7576 30.7435 19.4837 30.909 18.2049 30.9166H18.1978C9.77732 30.9166 2.98291 24.8347 2.98291 17.2713C2.98291 9.70787 9.77732 3.626 18.1978 3.626C26.6183 3.626 33.4141 9.70787 33.4141 17.2713C33.3557 19.5001 32.7622 21.674 31.6922 23.5786C30.6223 25.4832 29.1128 27.0526 27.3125 28.1323L27.2513 28.1663C27.1009 28.2542 26.9727 28.3807 26.8777 28.5347C26.7828 28.6886 26.724 28.8654 26.7065 29.0496V29.0543C26.9246 30.5497 27.4592 31.9702 28.2685 33.2044L28.25 33.1736H28.2585ZM28.1689 21.1008V21.0838C28.1691 20.9823 28.1508 20.8818 28.115 20.788C28.0793 20.6942 28.0268 20.609 27.9606 20.5372C27.8943 20.4655 27.8157 20.4086 27.7291 20.3698C27.6426 20.3311 27.5498 20.3113 27.4562 20.3115H27.4462C27.2774 20.3153 27.1157 20.3854 26.991 20.5088C24.5914 22.6737 21.5662 23.8561 18.4439 23.8496L18.1964 23.8465H18.2092C15.0046 23.8288 11.8996 22.6385 9.39748 20.4687L9.42594 20.4934C9.29402 20.3862 9.13857 20.3182 8.97497 20.296H8.9707C8.86778 20.2979 8.76636 20.3231 8.67292 20.3699C8.57948 20.4167 8.49609 20.4841 8.42807 20.5678C8.36005 20.6516 8.3089 20.7498 8.27789 20.8561C8.24689 20.9625 8.23671 21.0747 8.24801 21.1856V21.1825C8.25718 21.3682 8.30219 21.5498 8.38011 21.7155C8.45803 21.8812 8.56714 22.0273 8.7004 22.1445L8.70325 22.146C9.8331 23.6213 11.2492 24.8085 12.8506 25.6231C14.4521 26.4376 16.1996 26.8596 17.9687 26.8589L18.222 26.8558H18.2092H18.3016C20.1199 26.9274 21.928 26.5312 23.5778 25.6997C25.2276 24.8682 26.6722 23.625 27.7933 22.072L27.8118 22.0443C27.9029 21.7483 28.1703 21.3536 28.1703 21.0576L28.1689 21.1008Z" fill="white"/>
</svg>
