<svg width="34" height="34" viewBox="0 0 34 34" fill="none" xmlns="http://www.w3.org/2000/svg">
<path d="M17.0002 0.333282C13.7038 0.333282 10.4815 1.31077 7.74067 3.14212C4.99985 4.97348 2.86364 7.57646 1.60218 10.6219C0.340717 13.6673 0.0106619 17.0184 0.653749 20.2515C1.29684 23.4845 2.88418 26.4542 5.21506 28.7851C7.54593 31.1159 10.5156 32.7033 13.7487 33.3464C16.9817 33.9895 20.3328 33.6594 23.3782 32.3979C26.4237 31.1365 29.0266 29.0003 30.858 26.2595C32.6894 23.5186 33.6668 20.2963 33.6668 17C33.6668 14.8113 33.2357 12.644 32.3982 10.6219C31.5606 8.5998 30.3329 6.76248 28.7853 5.21484C27.2376 3.66719 25.4003 2.43954 23.3782 1.60196C21.3561 0.764379 19.1889 0.333282 17.0002 0.333282ZM17.0002 30.3333C14.3631 30.3333 11.7852 29.5513 9.59257 28.0862C7.39991 26.6211 5.69095 24.5387 4.68178 22.1024C3.67261 19.666 3.40856 16.9852 3.92303 14.3987C4.4375 11.8123 5.70738 9.43656 7.57208 7.57186C9.43678 5.70716 11.8126 4.43728 14.399 3.92281C16.9854 3.40834 19.6663 3.67239 22.1026 4.68156C24.539 5.69072 26.6213 7.39969 28.0864 9.59235C29.5515 11.785 30.3335 14.3629 30.3335 17C30.3335 20.5362 28.9287 23.9276 26.4283 26.428C23.9278 28.9285 20.5364 30.3333 17.0002 30.3333Z" fill="white"/>
<path d="M17.0003 6.99993C15.4532 6.99993 13.9695 7.61451 12.8755 8.70847C11.7816 9.80244 11.167 11.2862 11.167 12.8333C11.167 13.2753 11.3426 13.6992 11.6551 14.0118C11.9677 14.3243 12.3916 14.4999 12.8337 14.4999C13.2757 14.4999 13.6996 14.3243 14.0122 14.0118C14.3247 13.6992 14.5003 13.2753 14.5003 12.8333C14.5003 12.3388 14.6469 11.8555 14.9217 11.4443C15.1964 11.0332 15.5868 10.7128 16.0436 10.5236C16.5004 10.3343 17.0031 10.2848 17.4881 10.3813C17.973 10.4778 18.4185 10.7159 18.7681 11.0655C19.1177 11.4151 19.3558 11.8606 19.4523 12.3455C19.5488 12.8305 19.4992 13.3332 19.31 13.79C19.1208 14.2468 18.8004 14.6372 18.3892 14.9119C17.9781 15.1866 17.4948 15.3333 17.0003 15.3333C16.5583 15.3333 16.1344 15.5089 15.8218 15.8214C15.5093 16.134 15.3337 16.5579 15.3337 16.9999V20.3333C15.3337 20.7753 15.5093 21.1992 15.8218 21.5118C16.1344 21.8243 16.5583 21.9999 17.0003 21.9999C17.4424 21.9999 17.8663 21.8243 18.1788 21.5118C18.4914 21.1992 18.667 20.7753 18.667 20.3333V18.3999C20.0138 18.0066 21.1731 17.1397 21.9311 15.959C22.6892 14.7783 22.9949 13.3634 22.7919 11.975C22.5889 10.5867 21.891 9.31852 20.8266 8.40425C19.7623 7.48997 18.4034 6.99122 17.0003 6.99993Z" fill="white"/>
<path d="M17.0002 26.9999C17.9206 26.9999 18.6668 26.2537 18.6668 25.3332C18.6668 24.4128 17.9206 23.6666 17.0002 23.6666C16.0797 23.6666 15.3335 24.4128 15.3335 25.3332C15.3335 26.2537 16.0797 26.9999 17.0002 26.9999Z" fill="white"/>
</svg>
