<svg width="62" height="35" viewBox="0 0 62 35" fill="none" xmlns="http://www.w3.org/2000/svg">
<path d="M47.0766 16.4375C45.1897 11.4391 41.2278 7.4972 36.2728 5.7381C34.4434 5.08916 32.4834 4.7352 30.4397 4.7352C20.5925 4.7352 12.606 12.9247 12.606 23.0341C12.606 25.8765 13.2384 28.5688 14.3674 30.9661C14.4249 31.0895 14.4824 31.2075 14.5451 31.3308C14.7594 31.7599 14.9894 32.1835 15.235 32.5911L16.8919 32.4624L18.831 32.323C18.899 32.3176 18.9669 32.3123 19.0401 32.3123C18.6638 31.8242 18.3188 31.3147 18 30.7838C17.9477 30.6926 17.8902 30.6014 17.838 30.5049C16.5992 28.306 15.8884 25.7586 15.8884 23.0395C15.8884 14.791 22.4009 8.10859 30.4397 8.10859C31.2603 8.10859 32.0653 8.17831 32.8493 8.31239C34.3755 8.56982 35.8181 9.07395 37.1457 9.78188C37.8042 9.22411 38.2172 8.37674 38.2172 7.43284C38.2172 9.12221 39.55 10.4898 41.1964 10.4898C40.4751 10.4898 39.8166 10.7526 39.2991 11.1924C42.0275 13.343 43.9928 16.4589 44.6984 20.0468C44.8918 21.0122 44.9911 22.0151 44.9911 23.0395C44.9911 25.6781 44.322 28.1559 43.1512 30.3065C43.0728 30.4513 42.9892 30.5961 42.9056 30.7355C42.6233 31.2182 42.315 31.6794 41.9857 32.1246L42.1007 32.1299L44.0398 32.2533C44.3639 32.2694 44.6827 32.2962 45.0067 32.323L45.7699 32.3873C45.9685 32.0441 46.1566 31.6955 46.3344 31.3362C46.4284 31.1431 46.5225 30.95 46.6114 30.757C47.6776 28.4133 48.2683 25.7961 48.2683 23.0395C48.2683 20.7119 47.8501 18.4862 47.0766 16.4375Z" fill="black"/>
<path d="M23.5257 24.1016C23.7296 24.4288 23.8445 24.8149 23.8445 25.2332C23.8445 26.4024 22.9247 27.3463 21.7854 27.3463C20.6461 27.3463 19.7262 26.4024 19.7262 25.2332C19.7262 24.0641 20.6461 23.1201 21.7854 23.1201C22.0519 23.1201 22.308 23.1738 22.5432 23.2703C22.2296 23.1255 21.8847 23.0397 21.5188 23.0397C20.16 23.0397 19.0625 24.166 19.0625 25.5604C19.0625 26.9548 20.16 28.0811 21.5188 28.0811C22.8777 28.0811 23.9752 26.9548 23.9752 25.5604C23.9804 25.0133 23.808 24.5092 23.5257 24.1016Z" fill="black"/>
<path d="M31.9488 27.6187C32.0376 27.5061 32.1526 27.4149 32.2989 27.3666C32.7013 27.2218 33.1403 27.4417 33.2762 27.8547C33.4173 28.2677 33.203 28.7182 32.8006 28.8576C32.3982 29.0024 31.9592 28.7825 31.8233 28.3696C31.792 28.273 31.7763 28.1711 31.7815 28.0746C31.7711 28.2033 31.7815 28.3428 31.8286 28.4715C31.9958 28.9649 32.5184 29.2223 32.994 29.0507C33.4748 28.8791 33.7256 28.3428 33.5584 27.8547C33.3912 27.3613 32.8685 27.1038 32.393 27.2755C32.2101 27.3398 32.0533 27.4632 31.9488 27.6187Z" fill="black"/>
<path d="M40.5324 28.3018C40.3598 28.4895 40.1402 28.6343 39.8788 28.704C39.1521 28.8971 38.4044 28.4519 38.2162 27.7011C38.028 26.9556 38.4619 26.1887 39.1939 25.9956C39.9206 25.8025 40.6683 26.2476 40.8565 26.9985C40.9036 27.1755 40.9088 27.3525 40.8879 27.5241C40.9297 27.2935 40.9245 27.0521 40.8618 26.8108C40.6369 25.9205 39.7481 25.3842 38.8802 25.6148C38.0123 25.8454 37.4895 26.7572 37.7143 27.6475C37.9391 28.5377 38.8279 29.0741 39.6958 28.8434C40.0409 28.7523 40.3232 28.5538 40.5324 28.3018Z" fill="black"/>
<path d="M20.7259 17.0068C20.8565 16.9478 21.0081 16.9264 21.1597 16.9532C21.5883 17.0229 21.8757 17.4411 21.8078 17.8807C21.7398 18.3203 21.3322 18.6152 20.9036 18.5455C20.475 18.4758 20.1875 18.0576 20.2555 17.618C20.2712 17.5161 20.3077 17.4196 20.36 17.3338C20.2868 17.4464 20.2346 17.5751 20.2137 17.7145C20.13 18.2399 20.475 18.7332 20.9872 18.8189C21.4994 18.9047 21.9802 18.5509 22.0639 18.0255C22.1475 17.5 21.8025 17.0068 21.2903 16.921C21.0917 16.8889 20.8983 16.9264 20.7259 17.0068Z" fill="black"/>
<path d="M27.9141 14.849C27.9194 15.0635 27.8671 15.2834 27.7469 15.4819C27.4176 16.0343 26.7172 16.2113 26.1788 15.8734C25.6404 15.5355 25.4679 14.8168 25.7972 14.2644C26.1265 13.712 26.8269 13.535 27.3653 13.8729C27.4908 13.9533 27.6005 14.0552 27.6842 14.1679C27.5796 14.007 27.4385 13.8622 27.266 13.7549C26.6231 13.3527 25.7868 13.5618 25.3947 14.2215C25.0027 14.8812 25.2066 15.7393 25.8495 16.1415C26.4924 16.5438 27.3287 16.3346 27.7207 15.6749C27.8776 15.4121 27.9351 15.1279 27.9141 14.849Z" fill="black"/>
<path d="M36.2735 5.74304C34.9197 6.27936 33.7437 7.17502 32.8447 8.31203C31.6948 9.77083 31.0049 11.6265 31.0049 13.6484C31.0049 18.3305 34.7054 22.1331 39.2684 22.1331C41.3487 22.1331 43.246 21.3447 44.699 20.0468C45.7705 19.0867 46.6016 17.8478 47.0772 16.4373C45.1903 11.4388 41.2285 7.50218 36.2735 5.74304ZM34.4702 20.0253C34.4702 19.017 33.6758 18.2018 32.6931 18.2018C33.6758 18.2018 34.4702 17.3866 34.4702 16.3783C34.4702 17.3866 35.2647 18.2018 36.2473 18.2018C35.2647 18.2018 34.4702 19.017 34.4702 20.0253ZM38.2178 13.5465C38.2178 11.8571 36.885 10.4895 35.2386 10.4895C35.9651 10.4895 36.6289 10.2267 37.1463 9.78155C37.8049 9.22377 38.2178 8.37639 38.2178 7.43246C38.2178 9.12187 39.5507 10.4895 41.1971 10.4895C40.4758 10.4895 39.8172 10.7523 39.2998 11.1921C38.636 11.7499 38.2178 12.5972 38.2178 13.5465ZM42.8122 19.4944C42.8122 18.781 42.2477 18.2018 41.5525 18.2018C42.2477 18.2018 42.8122 17.6226 42.8122 16.9093C42.8122 17.6226 43.3767 18.2018 44.0718 18.2018C43.3767 18.2018 42.8122 18.781 42.8122 19.4944Z" fill="black"/>
<path d="M62 34.43C61.3519 34.3281 60.709 34.2155 60.0661 34.1082L59.1044 33.9366L58.1374 33.7918C57.4945 33.6953 56.8516 33.588 56.2087 33.4915L54.2748 33.234L54.2435 33.2287L53.3079 33.0999L52.3409 32.9873C51.698 32.9176 51.0551 32.8318 50.407 32.7621C49.116 32.6441 47.8302 32.4939 46.5392 32.4081L46.3354 32.392L45.5722 32.3276C45.2482 32.3008 44.9294 32.274 44.6053 32.2579L42.6662 32.1346L42.5512 32.1292L42.1801 32.1077L41.694 32.0863C41.3699 32.0756 41.0459 32.0541 40.727 32.0434C40.0789 32.0112 39.436 31.979 38.7879 31.9629C38.1398 31.9468 37.4969 31.9254 36.8488 31.9039L34.9096 31.8771C34.5856 31.8771 34.2615 31.861 33.9427 31.861H32.9705H31.9983C31.8363 31.861 31.6743 31.861 31.5122 31.861L31.0261 31.8718L29.087 31.8932L27.9842 31.9254L27.1479 31.9468L26.829 31.9522L26.6618 31.9576L26.5416 31.9629L26.1757 31.979L25.2035 32.0166L25.1199 32.0219L24.2313 32.0541C23.9073 32.0702 23.5832 32.0863 23.2644 32.1024C22.0413 32.156 20.8182 32.2365 19.59 32.3115C19.522 32.3169 19.4541 32.3223 19.3809 32.3223L17.4417 32.4617L15.7849 32.5904L15.5026 32.6119C12.9154 32.8264 10.3333 33.0946 7.75131 33.3949C7.50565 33.4217 7.25477 33.4539 7.00911 33.4807C4.67274 33.7596 2.33637 34.0707 0 34.4247C0.616759 34.2048 1.24397 34.0063 1.87119 33.8186C2.4984 33.6309 3.13084 33.4485 3.76328 33.2769C5.02816 32.9337 6.30349 32.6226 7.58405 32.3384C10.0145 31.7913 12.4606 31.3408 14.9224 30.9654C15.0531 30.9439 15.1838 30.9278 15.3145 30.9064L17.264 30.6382C17.6404 30.5899 18.0167 30.547 18.3878 30.5041C18.6648 30.472 18.9418 30.4398 19.2136 30.4076C20.5151 30.2628 21.8218 30.1341 23.1337 30.0322C23.463 30.0054 23.7871 29.9785 24.1163 29.9517L25.099 29.8927L26.0816 29.8337L26.5729 29.8069L27.0642 29.7855L29.0295 29.7157L31 29.6782L31.4913 29.6728C31.6533 29.6728 31.8206 29.6728 31.9826 29.6728L32.9653 29.6782L33.9479 29.6836C34.1099 29.6836 34.2772 29.6889 34.4392 29.6943L34.9305 29.7104L36.901 29.7747C37.5596 29.8123 38.213 29.8391 38.8663 29.882C39.5249 29.9142 40.1782 29.9732 40.8316 30.0268C41.1609 30.0536 41.4849 30.0804 41.8142 30.1073L42.3055 30.1502L42.7968 30.2038L43.7011 30.3057L44.7516 30.4237C45.0757 30.4559 45.405 30.5095 45.7291 30.5524L46.7065 30.6918L47.1612 30.7562L47.6839 30.8313C47.8459 30.8528 48.0079 30.8796 48.17 30.9117L48.656 30.9976C49.3042 31.1102 49.9523 31.2174 50.5952 31.3354C50.9192 31.3944 51.2381 31.4695 51.5621 31.5339L52.5239 31.7323L53.4856 31.9361C53.8044 32.0112 54.1233 32.0863 54.4421 32.1667L56.3499 32.6441C56.9823 32.8264 57.6147 33.0034 58.242 33.1911L59.1828 33.47L60.1184 33.7811C60.7613 33.9956 61.3832 34.2048 62 34.43Z" fill="black"/>
<path d="M10.4622 22.7303L7.46198 21.7837C7.29995 21.7341 7.19541 21.6304 7.18496 21.4771V21.4501C7.1745 21.2968 7.25813 21.1886 7.40971 21.121L10.2218 19.8182C10.2636 19.7956 10.3106 19.7821 10.3472 19.7821C10.5145 19.7731 10.6504 19.8723 10.6661 20.0165C10.6765 20.1427 10.5981 20.2329 10.4727 20.287L9.83499 20.5755L9.95521 22.0451L10.6504 22.257C10.7811 22.2931 10.8595 22.3787 10.8647 22.4914C10.8751 22.6312 10.7601 22.7439 10.5981 22.7574C10.5615 22.7574 10.5145 22.7484 10.4622 22.7303ZM9.30708 20.8099L7.9324 21.4275L9.39593 21.8738L9.30708 20.8099Z" fill="black"/>
<path d="M10.5172 17.2437C10.4544 17.2933 10.3604 17.3203 10.261 17.3023C10.1042 17.2707 10.0101 17.14 10.0467 17.0048C10.0676 16.9326 10.1042 16.8921 10.1408 16.865C10.4283 16.6622 10.6269 16.4278 10.7106 16.1032C10.7942 15.7831 10.6688 15.5442 10.4179 15.4946H10.4074C10.1617 15.445 9.99969 15.5397 9.70697 16.0626C9.36721 16.6577 9.05881 16.9732 8.42633 16.847H8.41587C7.82521 16.7343 7.53249 16.2294 7.68408 15.6434C7.78339 15.2692 7.97157 14.9942 8.24861 14.7688C8.30088 14.7192 8.40019 14.6786 8.52042 14.7012C8.67723 14.7327 8.77132 14.8635 8.73473 14.9987C8.71905 15.0483 8.69814 15.0889 8.65632 15.1249C8.42633 15.3188 8.27997 15.5216 8.21724 15.7561C8.13884 16.0626 8.27474 16.2745 8.49951 16.315H8.50996C8.77654 16.3646 8.92813 16.2519 9.2313 15.7155C9.57107 15.1249 9.91605 14.8545 10.4806 14.9626H10.491C11.134 15.0889 11.4006 15.5983 11.2385 16.2159C11.134 16.6171 10.8883 16.9687 10.5172 17.2437Z" fill="black"/>
<path d="M8.86497 13.1732C8.70294 13.1146 8.63498 12.9613 8.70293 12.8216L9.12632 11.9696C9.45039 11.3159 10.0829 11.068 10.7362 11.3114L10.7467 11.3159C11.4732 11.5864 11.5987 12.2265 11.2955 12.8396L11.0185 13.3941L11.7973 13.6826C11.9541 13.7412 12.0273 13.8945 11.9593 14.0297C11.8914 14.1695 11.7137 14.2281 11.5569 14.174L8.86497 13.1732ZM10.7885 12.6322C10.9714 12.2626 10.846 11.9425 10.5115 11.8163L10.501 11.8118C10.1247 11.672 9.80583 11.8343 9.62288 12.1995L9.34063 12.7675L10.501 13.2003L10.7885 12.6322Z" fill="black"/>
<path d="M12.7797 11.5265L11.0916 9.18686C11.0028 9.06063 10.9923 8.9254 11.0916 8.79917L11.1073 8.77663C11.2066 8.65041 11.3529 8.60983 11.5202 8.63688L14.6664 9.10571C14.7186 9.11022 14.7604 9.12375 14.7918 9.14178C14.9277 9.22292 14.9695 9.37619 14.8754 9.4934C14.7918 9.59709 14.6664 9.62864 14.5305 9.6061L13.8249 9.4934L12.8685 10.7196L13.2657 11.2605C13.3441 11.3552 13.3389 11.4679 13.2657 11.5581C13.1769 11.6708 12.9992 11.7023 12.8685 11.6257C12.8319 11.6031 12.8058 11.5716 12.7797 11.5265ZM13.2396 9.40324L11.7135 9.15981L12.5445 10.2868L13.2396 9.40324Z" fill="black"/>
<path d="M14.2571 7.74444L14.2519 7.73993C13.5516 7.12684 13.5098 6.17114 14.2676 5.5265C14.6543 5.19741 15.0202 5.08021 15.4069 5.03963C15.4905 5.03062 15.5898 5.04865 15.663 5.11627C15.7832 5.21996 15.778 5.38224 15.6578 5.48593C15.5951 5.53552 15.5324 5.55355 15.4853 5.56256C15.177 5.58961 14.9052 5.67076 14.6648 5.87362C14.1892 6.27934 14.2258 6.91497 14.7066 7.33872L14.7118 7.34322C15.1926 7.76698 15.9348 7.81657 16.4104 7.40634C16.6769 7.18094 16.771 6.95554 16.8024 6.66702C16.8076 6.61293 16.8337 6.55883 16.886 6.50924C16.9957 6.41458 17.1839 6.41458 17.2936 6.50924C17.3616 6.56785 17.3825 6.63998 17.3772 6.7076C17.3459 7.08627 17.2048 7.42437 16.7971 7.77149C16.0654 8.3981 14.9627 8.36654 14.2571 7.74444Z" fill="black"/>
<path d="M18.3966 6.14395L16.8077 4.06126C16.7136 3.93503 16.7502 3.77274 16.8965 3.68709L18.6057 2.71787C18.7311 2.64574 18.9036 2.6773 18.9872 2.78549C19.0709 2.89819 19.0343 3.04245 18.9088 3.11458L17.4558 3.93954L17.9576 4.59771L19.2225 3.88094C19.3479 3.80881 19.5204 3.84037 19.6092 3.95307C19.6929 4.06126 19.6511 4.21002 19.5256 4.27764L18.2607 4.99441L18.7782 5.67512L20.2521 4.84114C20.3776 4.76901 20.5501 4.80057 20.6337 4.90876C20.7173 5.02146 20.6807 5.16572 20.5553 5.23785L18.8252 6.22059C18.6841 6.30173 18.4959 6.27018 18.3966 6.14395Z" fill="black"/>
<path d="M23.4657 1.39291L22.6503 1.6093C22.4987 1.64987 22.3366 1.57323 22.2948 1.44701C22.2478 1.32078 22.3314 1.18104 22.483 1.14047L24.715 0.549918C24.8614 0.509346 25.0234 0.58598 25.0704 0.716712C25.1175 0.842936 25.0339 0.982686 24.8875 1.02326L24.0668 1.23964L24.8509 3.43504C24.9032 3.57479 24.8091 3.72355 24.6418 3.76863C24.4798 3.81371 24.3021 3.73708 24.255 3.59282L23.4657 1.39291Z" fill="black"/>
<path d="M26.4461 1.73586V1.72684C26.3468 0.879338 27.0263 0.0994536 28.0977 0.00929351C29.1744 -0.0853746 30.0054 0.554761 30.1047 1.40227V1.41128C30.204 2.25879 29.5246 3.03867 28.4531 3.12883C27.3764 3.21899 26.5454 2.58336 26.4461 1.73586ZM29.4618 1.4744V1.46538C29.3939 0.879338 28.8399 0.433046 28.15 0.496158C27.4601 0.55927 27.0263 1.07769 27.0942 1.66373V1.67275C27.1622 2.25879 27.7109 2.70057 28.4061 2.63746C29.096 2.57435 29.5298 2.06044 29.4618 1.4744Z" fill="black"/>
<path d="M33.9547 0.419001C33.9913 0.270237 34.1534 0.180078 34.3259 0.211634L35.5544 0.437034C35.9883 0.518178 36.2968 0.68948 36.4745 0.919389C36.6157 1.11323 36.6627 1.35216 36.6 1.61362V1.62264C36.4798 2.09598 36.0929 2.32589 35.5963 2.36195L36.0772 3.20044C36.119 3.27708 36.1452 3.33568 36.1243 3.41683C36.0877 3.56108 35.9204 3.63321 35.774 3.60616C35.6381 3.57912 35.5597 3.50699 35.5126 3.41683L34.9062 2.34392L34.1429 2.20417L33.9443 3.00209C33.9077 3.14635 33.7456 3.23651 33.5783 3.20495C33.4058 3.17339 33.3013 3.03365 33.3379 2.88939L33.9547 0.419001ZM35.1414 1.90214C35.5753 1.98328 35.8995 1.83902 35.9727 1.53699V1.52797C36.0511 1.21241 35.8315 0.987009 35.3819 0.905865L34.5037 0.743578L34.2579 1.73985L35.1414 1.90214Z" fill="black"/>
<path d="M37.2507 3.7113L38.3952 1.42124C38.4632 1.28149 38.6409 1.22288 38.8029 1.28149L40.6791 1.98023C40.8149 2.02982 40.8829 2.17407 40.8254 2.29128C40.7627 2.413 40.6007 2.46709 40.4648 2.4175L38.8708 1.82245L38.5102 2.54824L39.9004 3.06666C40.0362 3.11625 40.1042 3.2605 40.0415 3.38222C39.984 3.49943 39.8167 3.55352 39.6809 3.50394L38.2907 2.98552L37.9144 3.73384L39.5345 4.33792C39.6704 4.38751 39.7384 4.53176 39.6809 4.64897C39.6182 4.77069 39.4561 4.82478 39.3203 4.77519L37.4179 4.06744C37.2507 4.00433 37.1827 3.85105 37.2507 3.7113Z" fill="black"/>
<path d="M42.3616 3.01586C42.461 2.89415 42.6544 2.8671 42.7955 2.95275L42.8478 2.98431C42.9576 3.05193 42.9889 3.1466 42.9837 3.24577L42.8844 4.9498L44.7296 4.30966C44.8447 4.26909 44.9492 4.2736 45.0538 4.33671L45.106 4.36826C45.2472 4.45842 45.2785 4.62522 45.1792 4.74243L43.4698 6.80709C43.3705 6.92881 43.1823 6.95586 43.036 6.8657C42.9001 6.78455 42.8687 6.61325 42.9628 6.49604L44.186 5.01291L42.738 5.49076C42.6282 5.52682 42.5237 5.53133 42.4296 5.47272C42.3407 5.41863 42.3094 5.33298 42.3146 5.2338L42.3616 3.90845L41.1384 5.38707C41.0391 5.50879 40.8509 5.53133 40.715 5.44568C40.5739 5.36003 40.5477 5.20225 40.647 5.08504L42.3616 3.01586Z" fill="black"/>
<path d="M44.4227 7.57397L46.5606 5.89248C46.6913 5.7888 46.8795 5.79781 46.9997 5.91051L48.3797 7.21333C48.479 7.308 48.4738 7.46127 48.364 7.55143C48.249 7.64159 48.0765 7.63258 47.972 7.53791L46.8011 6.42893L46.1268 6.96088L47.1461 7.9256C47.2454 8.02026 47.2402 8.17354 47.1252 8.2637C47.0154 8.34935 46.8377 8.34033 46.7384 8.24566L45.7191 7.28095L45.0239 7.83093L46.2157 8.95342C46.315 9.04809 46.3097 9.20136 46.2 9.29152C46.085 9.38168 45.9125 9.37267 45.8079 9.278L44.4123 7.96166C44.2816 7.83994 44.292 7.67315 44.4227 7.57397Z" fill="black"/>
<path d="M49.4108 8.74435C49.5571 8.67222 49.7506 8.70828 49.8394 8.83901L49.8708 8.8886C49.9387 8.98778 49.9231 9.08695 49.8708 9.17261L48.9665 10.6918L50.9528 10.7594C51.0783 10.7639 51.1724 10.8045 51.2351 10.8992L51.2665 10.9488C51.3553 11.0795 51.3031 11.2418 51.1567 11.3184L48.6162 12.5987C48.4699 12.6708 48.2817 12.6302 48.1928 12.4995C48.1092 12.3778 48.1615 12.211 48.3026 12.1389L50.1217 11.2192L48.5744 11.1426C48.4542 11.1381 48.3601 11.102 48.3026 11.0164C48.2451 10.9352 48.2608 10.8496 48.313 10.7549L48.9874 9.56029L47.1683 10.4754C47.0219 10.5475 46.8389 10.507 46.7553 10.3762C46.6717 10.25 46.7135 10.0967 46.8651 10.0201L49.4108 8.74435Z" fill="black"/>
<path d="M51.8838 12.8675C52.051 12.8224 52.2235 12.8991 52.2757 13.0433L52.6624 14.0847C52.7826 14.4137 52.7774 14.7023 52.6468 14.9232C52.5475 15.09 52.3907 15.2072 52.166 15.2703L52.1555 15.2748C51.7532 15.3875 51.4658 15.2477 51.2567 15.0674C51.2463 15.4416 51.1104 15.7391 50.6558 15.8653L50.6453 15.8698C50.0496 16.0366 49.5688 15.6985 49.3284 15.0539L48.9261 13.972C48.8738 13.8277 48.9627 13.6789 49.1299 13.6339L51.8838 12.8675ZM49.851 14.9051C49.9817 15.2522 50.2168 15.419 50.5147 15.3334L50.5251 15.3289C50.8073 15.2522 50.9014 15.0088 50.7551 14.6121L50.4572 13.8097L49.5375 14.0621L49.851 14.9051ZM51.2149 14.3642C51.3351 14.6887 51.565 14.8691 51.8734 14.7834L51.8838 14.7789C52.1451 14.7068 52.2444 14.4814 52.119 14.1523L51.8472 13.422L50.9589 13.6654L51.2149 14.3642Z" fill="black"/>
<path d="M50.2213 16.9645L53.0954 16.6805C53.2679 16.6625 53.4194 16.7662 53.4403 16.9149L53.6755 18.6685C53.6912 18.7993 53.5814 18.9165 53.4351 18.9345C53.2783 18.948 53.1477 18.8534 53.1268 18.7271L52.9282 17.2395L52.0189 17.3297L52.1914 18.6235C52.2071 18.7542 52.0973 18.8714 51.9458 18.8894C51.7942 18.903 51.6636 18.8083 51.6427 18.6776L51.4702 17.3838L50.5348 17.4784L50.7386 18.9886C50.7543 19.1193 50.6445 19.2365 50.4982 19.2546C50.3415 19.2681 50.2108 19.1734 50.1899 19.0472L49.9547 17.2756C49.9286 17.1133 50.0488 16.9825 50.2213 16.9645Z" fill="black"/>
<path d="M53.4287 20.3926C53.6064 20.4061 53.7267 20.5279 53.7162 20.6811L53.6169 21.763C53.5803 22.1417 53.4234 22.4347 53.1882 22.6105C52.9843 22.7593 52.7124 22.8314 52.4092 22.8089H52.3987C51.8393 22.7728 51.5204 22.4663 51.4159 22.0516L50.5167 22.5745C50.4382 22.6196 50.3703 22.6511 50.2709 22.6466C50.0984 22.6331 49.9991 22.5024 50.0095 22.3716C50.02 22.2499 50.0932 22.1778 50.1925 22.1237L51.3479 21.461L51.4054 20.7893L50.4644 20.7262C50.2919 20.7127 50.1716 20.591 50.1821 20.4422C50.1978 20.2889 50.3389 20.1853 50.5114 20.1943L53.4287 20.3926ZM51.8812 21.6053C51.8446 21.9839 52.0537 22.2409 52.4092 22.2679H52.4197C52.7961 22.295 53.0209 22.0741 53.0575 21.6819L53.1254 20.9065L51.9491 20.8299L51.8812 21.6053Z" fill="black"/>
</svg>
