<svg width="62" height="35" viewBox="0 0 62 35" fill="none" xmlns="http://www.w3.org/2000/svg">
<path d="M47.0763 16.4375C45.1894 11.4391 41.2275 7.4972 36.2726 5.7381C34.4432 5.08916 32.4831 4.7352 30.4395 4.7352C20.5922 4.7352 12.6057 12.9247 12.6057 23.0341C12.6057 25.8765 13.2382 28.5688 14.3671 30.9661C14.4246 31.0895 14.4821 31.2075 14.5448 31.3308C14.7591 31.7599 14.9891 32.1835 15.2348 32.5911L16.8917 32.4624L18.8308 32.323C18.8988 32.3176 18.9667 32.3123 19.0399 32.3123C18.6635 31.8242 18.3186 31.3147 17.9997 30.7838C17.9475 30.6926 17.89 30.6014 17.8377 30.5049C16.599 28.306 15.8881 25.7586 15.8881 23.0395C15.8881 14.791 22.4007 8.10859 30.4395 8.10859C31.2601 8.10859 32.065 8.17831 32.849 8.31239C34.3752 8.56982 35.8178 9.07395 37.1454 9.78188C37.804 9.22411 38.2169 8.37674 38.2169 7.43284C38.2169 9.12221 39.5497 10.4898 41.1962 10.4898C40.4749 10.4898 39.8163 10.7526 39.2989 11.1924C42.0272 13.343 43.9925 16.4589 44.6981 20.0468C44.8915 21.0122 44.9908 22.0151 44.9908 23.0395C44.9908 25.6781 44.3218 28.1559 43.151 30.3065C43.0726 30.4513 42.989 30.5961 42.9053 30.7355C42.6231 31.2182 42.3147 31.6794 41.9854 32.1246L42.1004 32.1299L44.0396 32.2533C44.3636 32.2694 44.6824 32.2962 45.0065 32.323L45.7696 32.3873C45.9682 32.0441 46.1564 31.6955 46.3341 31.3362C46.4282 31.1431 46.5223 30.95 46.6111 30.757C47.6774 28.4133 48.268 25.7961 48.268 23.0395C48.268 20.7119 47.8499 18.4862 47.0763 16.4375Z" fill="black"/>
<path d="M23.5252 24.1016C23.7291 24.4288 23.844 24.8149 23.844 25.2332C23.844 26.4024 22.9242 27.3463 21.7849 27.3463C20.6456 27.3463 19.7257 26.4024 19.7257 25.2332C19.7257 24.0641 20.6456 23.1201 21.7849 23.1201C22.0514 23.1201 22.3075 23.1738 22.5427 23.2703C22.2291 23.1255 21.8842 23.0397 21.5184 23.0397C20.1595 23.0397 19.062 24.166 19.062 25.5604C19.062 26.9548 20.1595 28.0811 21.5184 28.0811C22.8772 28.0811 23.9747 26.9548 23.9747 25.5604C23.9799 25.0133 23.8075 24.5092 23.5252 24.1016Z" fill="black"/>
<path d="M31.9485 27.6187C32.0374 27.5061 32.1523 27.4149 32.2987 27.3666C32.7011 27.2218 33.1401 27.4417 33.2759 27.8547C33.417 28.2677 33.2028 28.7182 32.8004 28.8576C32.398 29.0024 31.959 28.7825 31.8231 28.3696C31.7917 28.273 31.7761 28.1711 31.7813 28.0746C31.7708 28.2033 31.7813 28.3428 31.8283 28.4715C31.9956 28.9649 32.5182 29.2223 32.9937 29.0507C33.4745 28.8791 33.7254 28.3428 33.5581 27.8547C33.3909 27.3613 32.8683 27.1038 32.3927 27.2755C32.2098 27.3398 32.053 27.4632 31.9485 27.6187Z" fill="black"/>
<path d="M40.5319 28.3018C40.3593 28.4895 40.1397 28.6343 39.8783 28.704C39.1516 28.8971 38.4039 28.4519 38.2157 27.7011C38.0275 26.9556 38.4614 26.1887 39.1934 25.9956C39.9202 25.8025 40.6678 26.2476 40.856 26.9985C40.9031 27.1755 40.9083 27.3525 40.8874 27.5241C40.9292 27.2935 40.924 27.0521 40.8613 26.8108C40.6364 25.9205 39.7476 25.3842 38.8797 25.6148C38.0118 25.8454 37.489 26.7572 37.7138 27.6475C37.9386 28.5377 38.8274 29.0741 39.6953 28.8434C40.0404 28.7523 40.3227 28.5538 40.5319 28.3018Z" fill="black"/>
<path d="M20.7259 17.0068C20.8565 16.9478 21.0081 16.9264 21.1597 16.9532C21.5883 17.0229 21.8757 17.4411 21.8078 17.8807C21.7398 18.3203 21.3322 18.6152 20.9036 18.5455C20.475 18.4758 20.1875 18.0576 20.2555 17.618C20.2712 17.5161 20.3077 17.4196 20.36 17.3338C20.2868 17.4464 20.2346 17.5751 20.2137 17.7145C20.13 18.2399 20.475 18.7332 20.9872 18.8189C21.4994 18.9047 21.9802 18.5509 22.0639 18.0255C22.1475 17.5 21.8025 17.0068 21.2903 16.921C21.0917 16.8889 20.8983 16.9264 20.7259 17.0068Z" fill="black"/>
<path d="M27.9137 14.849C27.9189 15.0635 27.8666 15.2834 27.7464 15.4819C27.4171 16.0343 26.7167 16.2113 26.1783 15.8734C25.6399 15.5355 25.4674 14.8168 25.7967 14.2644C26.126 13.712 26.8264 13.535 27.3648 13.8729C27.4903 13.9533 27.6 14.0552 27.6837 14.1679C27.5791 14.007 27.438 13.8622 27.2655 13.7549C26.6226 13.3527 25.7863 13.5618 25.3942 14.2215C25.0022 14.8812 25.2061 15.7393 25.849 16.1415C26.4919 16.5438 27.3282 16.3346 27.7203 15.6749C27.8771 15.4121 27.9346 15.1279 27.9137 14.849Z" fill="black"/>
<path d="M36.273 5.74304C34.9193 6.27936 33.7432 7.17502 32.8442 8.31203C31.6943 9.77083 31.0044 11.6265 31.0044 13.6484C31.0044 18.3305 34.7049 22.1331 39.2679 22.1331C41.3482 22.1331 43.2455 21.3447 44.6985 20.0468C45.77 19.0867 46.6011 17.8478 47.0767 16.4373C45.1899 11.4388 41.228 7.50218 36.273 5.74304ZM34.4697 20.0253C34.4697 19.017 33.6753 18.2018 32.6926 18.2018C33.6753 18.2018 34.4697 17.3866 34.4697 16.3783C34.4697 17.3866 35.2642 18.2018 36.2469 18.2018C35.2642 18.2018 34.4697 19.017 34.4697 20.0253ZM38.2173 13.5465C38.2173 11.8571 36.8845 10.4895 35.2381 10.4895C35.9646 10.4895 36.6284 10.2267 37.1459 9.78155C37.8044 9.22377 38.2173 8.37639 38.2173 7.43246C38.2173 9.12187 39.5502 10.4895 41.1966 10.4895C40.4753 10.4895 39.8167 10.7523 39.2993 11.1921C38.6355 11.7499 38.2173 12.5972 38.2173 13.5465ZM42.8117 19.4944C42.8117 18.781 42.2472 18.2018 41.552 18.2018C42.2472 18.2018 42.8117 17.6226 42.8117 16.9093C42.8117 17.6226 43.3762 18.2018 44.0713 18.2018C43.3762 18.2018 42.8117 18.781 42.8117 19.4944Z" fill="black"/>
<path d="M62 34.43C61.3519 34.3281 60.709 34.2155 60.0661 34.1082L59.1044 33.9366L58.1374 33.7918C57.4945 33.6953 56.8516 33.588 56.2087 33.4915L54.2748 33.234L54.2435 33.2287L53.3079 33.0999L52.3409 32.9873C51.698 32.9176 51.0551 32.8318 50.407 32.7621C49.116 32.6441 47.8302 32.4939 46.5392 32.4081L46.3354 32.392L45.5722 32.3276C45.2482 32.3008 44.9294 32.274 44.6053 32.2579L42.6662 32.1346L42.5512 32.1292L42.1801 32.1077L41.694 32.0863C41.3699 32.0756 41.0459 32.0541 40.727 32.0434C40.0789 32.0112 39.436 31.979 38.7879 31.9629C38.1398 31.9468 37.4969 31.9254 36.8488 31.9039L34.9096 31.8771C34.5856 31.8771 34.2615 31.861 33.9427 31.861H32.9705H31.9983C31.8363 31.861 31.6743 31.861 31.5122 31.861L31.0261 31.8718L29.087 31.8932L27.9842 31.9254L27.1479 31.9468L26.829 31.9522L26.6618 31.9576L26.5416 31.9629L26.1757 31.979L25.2035 32.0166L25.1199 32.0219L24.2313 32.0541C23.9073 32.0702 23.5832 32.0863 23.2644 32.1024C22.0413 32.156 20.8182 32.2365 19.59 32.3115C19.522 32.3169 19.4541 32.3223 19.3809 32.3223L17.4417 32.4617L15.7849 32.5904L15.5026 32.6119C12.9154 32.8264 10.3333 33.0946 7.75131 33.3949C7.50565 33.4217 7.25477 33.4539 7.00911 33.4807C4.67274 33.7596 2.33637 34.0707 0 34.4247C0.616759 34.2048 1.24397 34.0063 1.87119 33.8186C2.4984 33.6309 3.13084 33.4485 3.76328 33.2769C5.02816 32.9337 6.30349 32.6226 7.58405 32.3384C10.0145 31.7913 12.4606 31.3408 14.9224 30.9654C15.0531 30.9439 15.1838 30.9278 15.3145 30.9064L17.264 30.6382C17.6404 30.5899 18.0167 30.547 18.3878 30.5041C18.6648 30.472 18.9418 30.4398 19.2136 30.4076C20.5151 30.2628 21.8218 30.1341 23.1337 30.0322C23.463 30.0054 23.7871 29.9785 24.1163 29.9517L25.099 29.8927L26.0816 29.8337L26.5729 29.8069L27.0642 29.7855L29.0295 29.7157L31 29.6782L31.4913 29.6728C31.6533 29.6728 31.8206 29.6728 31.9826 29.6728L32.9653 29.6782L33.9479 29.6836C34.1099 29.6836 34.2772 29.6889 34.4392 29.6943L34.9305 29.7104L36.901 29.7747C37.5596 29.8123 38.213 29.8391 38.8663 29.882C39.5249 29.9142 40.1782 29.9732 40.8316 30.0268C41.1609 30.0536 41.4849 30.0804 41.8142 30.1073L42.3055 30.1502L42.7968 30.2038L43.7011 30.3057L44.7516 30.4237C45.0757 30.4559 45.405 30.5095 45.7291 30.5524L46.7065 30.6918L47.1612 30.7562L47.6839 30.8313C47.8459 30.8528 48.0079 30.8796 48.17 30.9117L48.656 30.9976C49.3042 31.1102 49.9523 31.2174 50.5952 31.3354C50.9192 31.3944 51.2381 31.4695 51.5621 31.5339L52.5239 31.7323L53.4856 31.9361C53.8044 32.0112 54.1233 32.0863 54.4421 32.1667L56.3499 32.6441C56.9823 32.8264 57.6147 33.0034 58.242 33.1911L59.1828 33.47L60.1184 33.7811C60.7613 33.9956 61.3832 34.2048 62 34.43Z" fill="black"/>
<path d="M10.4625 22.7303L7.46223 21.7837C7.30019 21.7341 7.19566 21.6304 7.1852 21.4771V21.4501C7.17475 21.2968 7.25838 21.1886 7.40996 21.121L10.222 19.8182C10.2638 19.7956 10.3109 19.7821 10.3475 19.7821C10.5147 19.7731 10.6506 19.8723 10.6663 20.0165C10.6768 20.1427 10.5984 20.2329 10.4729 20.287L9.83523 20.5755L9.95545 22.0451L10.6506 22.257C10.7813 22.2931 10.8597 22.3787 10.8649 22.4914C10.8754 22.6312 10.7604 22.7439 10.5984 22.7574C10.5618 22.7574 10.5147 22.7484 10.4625 22.7303ZM9.30732 20.8099L7.93265 21.4275L9.39617 21.8738L9.30732 20.8099Z" fill="black"/>
<path d="M10.5172 17.2437C10.4544 17.2933 10.3604 17.3203 10.261 17.3023C10.1042 17.2707 10.0101 17.14 10.0467 17.0048C10.0676 16.9326 10.1042 16.8921 10.1408 16.865C10.4283 16.6622 10.6269 16.4278 10.7106 16.1032C10.7942 15.7831 10.6688 15.5442 10.4179 15.4946H10.4074C10.1617 15.445 9.99969 15.5397 9.70697 16.0626C9.36721 16.6577 9.05881 16.9732 8.42633 16.847H8.41587C7.82521 16.7343 7.53249 16.2294 7.68408 15.6434C7.78339 15.2692 7.97157 14.9942 8.24861 14.7688C8.30088 14.7192 8.40019 14.6786 8.52042 14.7012C8.67723 14.7327 8.77132 14.8635 8.73473 14.9987C8.71905 15.0483 8.69814 15.0889 8.65632 15.1249C8.42633 15.3188 8.27997 15.5216 8.21724 15.7561C8.13884 16.0626 8.27474 16.2745 8.49951 16.315H8.50996C8.77654 16.3646 8.92813 16.2519 9.2313 15.7155C9.57107 15.1249 9.91605 14.8545 10.4806 14.9626H10.491C11.134 15.0889 11.4006 15.5983 11.2385 16.2159C11.134 16.6171 10.8883 16.9687 10.5172 17.2437Z" fill="black"/>
<path d="M8.86546 13.1732C8.70342 13.1146 8.63547 12.9613 8.70342 12.8216L9.12681 11.9696C9.45088 11.3159 10.0833 11.068 10.7367 11.3114L10.7472 11.3159C11.4737 11.5864 11.5992 12.2265 11.296 12.8396L11.019 13.3941L11.7978 13.6826C11.9546 13.7412 12.0278 13.8945 11.9598 14.0297C11.8919 14.1695 11.7142 14.2281 11.5574 14.174L8.86546 13.1732ZM10.789 12.6322C10.9719 12.2626 10.8465 11.9425 10.512 11.8163L10.5015 11.8118C10.1252 11.672 9.80632 11.8343 9.62337 12.1995L9.34111 12.7675L10.5015 13.2003L10.789 12.6322Z" fill="black"/>
<path d="M12.7799 11.5265L11.0918 9.18686C11.003 9.06063 10.9926 8.9254 11.0918 8.79917L11.1075 8.77663C11.2068 8.65041 11.3532 8.60983 11.5204 8.63688L14.6666 9.10571C14.7189 9.11022 14.7607 9.12375 14.792 9.14178C14.9279 9.22292 14.9697 9.37619 14.8756 9.4934C14.792 9.59709 14.6666 9.62864 14.5307 9.6061L13.8252 9.4934L12.8688 10.7196L13.266 11.2605C13.3444 11.3552 13.3391 11.4679 13.266 11.5581C13.1771 11.6708 12.9994 11.7023 12.8688 11.6257C12.8322 11.6031 12.8061 11.5716 12.7799 11.5265ZM13.2398 9.40324L11.7138 9.15981L12.5447 10.2868L13.2398 9.40324Z" fill="black"/>
<path d="M14.2576 7.74444L14.2524 7.73993C13.5521 7.12684 13.5102 6.17114 14.2681 5.5265C14.6548 5.19741 15.0207 5.08021 15.4074 5.03963C15.491 5.03062 15.5903 5.04865 15.6635 5.11627C15.7837 5.21996 15.7785 5.38224 15.6583 5.48593C15.5956 5.53552 15.5328 5.55355 15.4858 5.56256C15.1774 5.58961 14.9057 5.67076 14.6653 5.87362C14.1897 6.27934 14.2263 6.91497 14.7071 7.33872L14.7123 7.34322C15.1931 7.76698 15.9353 7.81657 16.4109 7.40634C16.6774 7.18094 16.7715 6.95554 16.8028 6.66702C16.8081 6.61293 16.8342 6.55883 16.8865 6.50924C16.9962 6.41458 17.1844 6.41458 17.2941 6.50924C17.3621 6.56785 17.383 6.63998 17.3777 6.7076C17.3464 7.08627 17.2053 7.42437 16.7976 7.77149C16.0659 8.3981 14.9632 8.36654 14.2576 7.74444Z" fill="black"/>
<path d="M18.3969 6.14395L16.8079 4.06126C16.7138 3.93503 16.7504 3.77274 16.8968 3.68709L18.6059 2.71787C18.7314 2.64574 18.9039 2.6773 18.9875 2.78549C19.0711 2.89819 19.0345 3.04245 18.9091 3.11458L17.456 3.93954L17.9578 4.59771L19.2227 3.88094C19.3481 3.80881 19.5206 3.84037 19.6095 3.95307C19.6931 4.06126 19.6513 4.21002 19.5259 4.27764L18.261 4.99441L18.7784 5.67512L20.2524 4.84114C20.3778 4.76901 20.5503 4.80057 20.6339 4.90876C20.7176 5.02146 20.681 5.16572 20.5555 5.23785L18.8255 6.22059C18.6843 6.30173 18.4962 6.27018 18.3969 6.14395Z" fill="black"/>
<path d="M23.466 1.39291L22.6505 1.6093C22.4989 1.64987 22.3369 1.57323 22.2951 1.44701C22.248 1.32078 22.3317 1.18104 22.4833 1.14047L24.7152 0.549918C24.8616 0.509346 25.0236 0.58598 25.0707 0.716712C25.1177 0.842936 25.0341 0.982686 24.8877 1.02326L24.0671 1.23964L24.8511 3.43504C24.9034 3.57479 24.8093 3.72355 24.6421 3.76863C24.48 3.81371 24.3023 3.73708 24.2553 3.59282L23.466 1.39291Z" fill="black"/>
<path d="M26.4466 1.73586V1.72684C26.3473 0.879338 27.0268 0.0994536 28.0982 0.00929351C29.1749 -0.0853746 30.0059 0.554761 30.1052 1.40227V1.41128C30.2045 2.25879 29.525 3.03867 28.4536 3.12883C27.3769 3.21899 26.5459 2.58336 26.4466 1.73586ZM29.4623 1.4744V1.46538C29.3944 0.879338 28.8404 0.433046 28.1505 0.496158C27.4606 0.55927 27.0268 1.07769 27.0947 1.66373V1.67275C27.1626 2.25879 27.7114 2.70057 28.4066 2.63746C29.0965 2.57435 29.5303 2.06044 29.4623 1.4744Z" fill="black"/>
<path d="M33.955 0.419001C33.9916 0.270237 34.1536 0.180078 34.3261 0.211634L35.5547 0.437034C35.9886 0.518178 36.297 0.68948 36.4748 0.919389C36.6159 1.11323 36.663 1.35216 36.6002 1.61362V1.62264C36.48 2.09598 36.0931 2.32589 35.5965 2.36195L36.0775 3.20044C36.1193 3.27708 36.1454 3.33568 36.1245 3.41683C36.0879 3.56108 35.9206 3.63321 35.7742 3.60616C35.6383 3.57912 35.5599 3.50699 35.5129 3.41683L34.9064 2.34392L34.1432 2.20417L33.9445 3.00209C33.9079 3.14635 33.7459 3.23651 33.5786 3.20495C33.4061 3.17339 33.3015 3.03365 33.3381 2.88939L33.955 0.419001ZM35.1417 1.90214C35.5756 1.98328 35.8997 1.83902 35.9729 1.53699V1.52797C36.0513 1.21241 35.8318 0.987009 35.3822 0.905865L34.5039 0.743578L34.2582 1.73985L35.1417 1.90214Z" fill="black"/>
<path d="M37.2509 3.7113L38.3955 1.42124C38.4634 1.28149 38.6411 1.22288 38.8031 1.28149L40.6793 1.98023C40.8152 2.02982 40.8831 2.17407 40.8256 2.29128C40.7629 2.413 40.6009 2.46709 40.465 2.4175L38.8711 1.82245L38.5104 2.54824L39.9006 3.06666C40.0365 3.11625 40.1044 3.2605 40.0417 3.38222C39.9842 3.49943 39.817 3.55352 39.6811 3.50394L38.2909 2.98552L37.9147 3.73384L39.5348 4.33792C39.6707 4.38751 39.7386 4.53176 39.6811 4.64897C39.6184 4.77069 39.4564 4.82478 39.3205 4.77519L37.4182 4.06744C37.2509 4.00433 37.183 3.85105 37.2509 3.7113Z" fill="black"/>
<path d="M42.3619 3.01586C42.4612 2.89415 42.6546 2.8671 42.7957 2.95275L42.848 2.98431C42.9578 3.05193 42.9892 3.1466 42.9839 3.24577L42.8846 4.9498L44.7299 4.30966C44.8449 4.26909 44.9494 4.2736 45.054 4.33671L45.1063 4.36826C45.2474 4.45842 45.2788 4.62522 45.1794 4.74243L43.4701 6.80709C43.3708 6.92881 43.1826 6.95586 43.0362 6.8657C42.9003 6.78455 42.8689 6.61325 42.963 6.49604L44.1862 5.01291L42.7382 5.49076C42.6285 5.52682 42.5239 5.53133 42.4298 5.47272C42.341 5.41863 42.3096 5.33298 42.3148 5.2338L42.3619 3.90845L41.1387 5.38707C41.0393 5.50879 40.8512 5.53133 40.7152 5.44568C40.5741 5.36003 40.548 5.20225 40.6473 5.08504L42.3619 3.01586Z" fill="black"/>
<path d="M44.4227 7.57397L46.5606 5.89248C46.6913 5.7888 46.8795 5.79781 46.9997 5.91051L48.3797 7.21333C48.479 7.308 48.4738 7.46127 48.364 7.55143C48.249 7.64159 48.0765 7.63258 47.972 7.53791L46.8011 6.42894L46.1268 6.96088L47.1461 7.92559C47.2454 8.02026 47.2402 8.17354 47.1252 8.2637C47.0154 8.34935 46.8377 8.34033 46.7384 8.24566L45.7191 7.28095L45.0239 7.83093L46.2157 8.95342C46.315 9.04809 46.3097 9.20136 46.2 9.29152C46.085 9.38168 45.9125 9.37267 45.8079 9.278L44.4123 7.96166C44.2816 7.83994 44.292 7.67315 44.4227 7.57397Z" fill="black"/>
<path d="M49.4108 8.74435C49.5571 8.67222 49.7506 8.70828 49.8394 8.83901L49.8708 8.8886C49.9387 8.98778 49.9231 9.08695 49.8708 9.17261L48.9665 10.6918L50.9528 10.7594C51.0783 10.7639 51.1724 10.8045 51.2351 10.8992L51.2665 10.9488C51.3553 11.0795 51.3031 11.2418 51.1567 11.3184L48.6162 12.5987C48.4699 12.6708 48.2817 12.6302 48.1928 12.4995C48.1092 12.3778 48.1615 12.211 48.3026 12.1389L50.1217 11.2192L48.5744 11.1426C48.4542 11.1381 48.3601 11.102 48.3026 11.0164C48.2451 10.9352 48.2608 10.8496 48.313 10.7549L48.9874 9.56029L47.1683 10.4754C47.0219 10.5475 46.8389 10.507 46.7553 10.3762C46.6717 10.25 46.7135 10.0967 46.8651 10.0201L49.4108 8.74435Z" fill="black"/>
<path d="M51.8841 12.8675C52.0513 12.8224 52.2237 12.8991 52.276 13.0433L52.6627 14.0847C52.7829 14.4137 52.7776 14.7023 52.647 14.9232C52.5477 15.09 52.3909 15.2072 52.1662 15.2703L52.1558 15.2748C51.7534 15.3875 51.466 15.2477 51.257 15.0674C51.2465 15.4416 51.1107 15.7391 50.656 15.8653L50.6456 15.8698C50.0498 16.0366 49.5691 15.6985 49.3287 15.0539L48.9263 13.972C48.8741 13.8277 48.9629 13.6789 49.1301 13.6339L51.8841 12.8675ZM49.8513 14.9051C49.9819 15.2522 50.2171 15.419 50.5149 15.3334L50.5254 15.3289C50.8076 15.2522 50.9016 15.0088 50.7553 14.6121L50.4574 13.8097L49.5377 14.0621L49.8513 14.9051ZM51.2152 14.3642C51.3354 14.6887 51.5653 14.8691 51.8736 14.7834L51.8841 14.7789C52.1453 14.7068 52.2446 14.4814 52.1192 14.1523L51.8475 13.422L50.9591 13.6654L51.2152 14.3642Z" fill="black"/>
<path d="M50.2217 16.9645L53.0959 16.6805C53.2684 16.6625 53.4199 16.7662 53.4408 16.9149L53.676 18.6685C53.6917 18.7993 53.5819 18.9165 53.4356 18.9345C53.2788 18.948 53.1482 18.8534 53.1273 18.7271L52.9287 17.2395L52.0194 17.3297L52.1919 18.6235C52.2075 18.7542 52.0978 18.8714 51.9463 18.8894C51.7947 18.903 51.6641 18.8083 51.6432 18.6776L51.4707 17.3838L50.5353 17.4784L50.7391 18.9886C50.7548 19.1193 50.645 19.2365 50.4987 19.2546C50.3419 19.2681 50.2113 19.1734 50.1904 19.0472L49.9552 17.2756C49.9291 17.1133 50.0493 16.9825 50.2217 16.9645Z" fill="black"/>
<path d="M53.4287 20.3926C53.6064 20.4061 53.7267 20.5279 53.7162 20.6811L53.6169 21.763C53.5803 22.1417 53.4234 22.4347 53.1882 22.6105C52.9843 22.7593 52.7124 22.8314 52.4092 22.8089H52.3987C51.8393 22.7728 51.5204 22.4663 51.4159 22.0516L50.5167 22.5745C50.4382 22.6196 50.3703 22.6511 50.2709 22.6466C50.0984 22.6331 49.9991 22.5024 50.0095 22.3716C50.02 22.2499 50.0932 22.1778 50.1925 22.1237L51.3479 21.461L51.4054 20.7893L50.4644 20.7262C50.2919 20.7127 50.1716 20.591 50.1821 20.4422C50.1978 20.2889 50.3389 20.1853 50.5114 20.1943L53.4287 20.3926ZM51.8812 21.6053C51.8446 21.9839 52.0537 22.2409 52.4092 22.2679H52.4197C52.7961 22.295 53.0209 22.0741 53.0575 21.6819L53.1254 20.9065L51.9491 20.8299L51.8812 21.6053Z" fill="black"/>
</svg>
